<?xml version="1.0" encoding="UTF-8" standalone="yes"?>
<!-- Created with sK1/UniConvertor (http://sk1project.org/) -->
<svg xmlns="http://www.w3.org/2000/svg" xmlns:xlink="http://www.w3.org/1999/xlink"
  width="39pt" height="26pt" viewBox="0 0 39 26"
  fill-rule="evenodd">
<g>
<g>
<path style="stroke:none; fill:#000000" d="M 0.1 4.7C 0.2 9 0.6 9.9 4.1 12.9L 8.1 16.3L 11.3 13.2C 14.9 9.7 16 9.3 16 11.3C 16 13 9.8 19 8 19C 7.2 19 5.1 17.6 3.3 15.8L -2.38419e-07 12.6L -2.38419e-07 19.3L -2.38419e-07 26L 13.2 26C 25.8 26 26.3 25.9 24.7 24.2C 22.3 21.5 22.3 4.5 24.7 1.8C 26.3 0.1 25.8 1.90735e-06 13.2 1.90735e-06L 9.53674e-07 1.90735e-06L 0.1 4.7z"/>
<path style="stroke:none; fill:#000000" d="M 36 0.4C 36 0.6 36.7 1.3 37.5 2C 38.7 3 39 3 39 1.6C 39 0.700001 38.3 0 37.5 0C 36.7 0 36 0.200001 36 0.4z"/>
<path style="stroke:none; fill:#000000" d="M 27.1 3.7C 25.1 5.3 24.9 6.3 25.2 13.5C 25.5 21 25.7 21.5 28.3 23C 30.7 24.3 31.3 24.3 33.8 23C 36.3 21.5 36.5 21 36.8 13.5C 37.1 6.3 36.9 5.3 34.9 3.7C 33.7 2.8 32 2 31 2C 30 2 28.3 2.8 27.1 3.7zM 32 6.5C 32 7.9 31.6 9 31 9C 30.5 9 30 7.9 30 6.5C 30 5.1 30.5 4 31 4C 31.6 4 32 5.1 32 6.5z"/>
<path style="stroke:none; fill:#000000" d="M 37 24.5C 36 25.7 36 26 37.4 26C 38.3 26 39 25.3 39 24.5C 39 23.7 38.8 23 38.6 23C 38.4 23 37.7 23.7 37 24.5z"/>
</g>
</g>
</svg>